<mxfile host="Electron" modified="2025-01-27T19:09:05.433Z" agent="Mozilla/5.0 (Windows NT 10.0; Win64; x64) AppleWebKit/537.36 (KHTML, like Gecko) draw.io/24.6.4 Chrome/124.0.6367.207 Electron/30.0.6 Safari/537.36" etag="yxcZvOVszbXCaCwQIW_Y" version="24.6.4" type="device">
  <diagram name="Page-1" id="g5qps6Gav3NVNig8DH0R">
    <mxGraphModel dx="2313" dy="3091" grid="1" gridSize="10" guides="1" tooltips="1" connect="1" arrows="1" fold="1" page="1" pageScale="1" pageWidth="850" pageHeight="1100" math="0" shadow="0">
      <root>
        <mxCell id="0" />
        <mxCell id="1" parent="0" />
        <mxCell id="1PdTfg1dqlz-AFpm_Ou7-380" value="" style="ellipse;whiteSpace=wrap;html=1;" vertex="1" parent="1">
          <mxGeometry x="-900" y="-1410" width="270" height="110" as="geometry" />
        </mxCell>
        <mxCell id="1PdTfg1dqlz-AFpm_Ou7-271" value="" style="rounded=0;whiteSpace=wrap;html=1;" vertex="1" parent="1">
          <mxGeometry x="-1170" y="-1300" width="250" height="219" as="geometry" />
        </mxCell>
        <mxCell id="1PdTfg1dqlz-AFpm_Ou7-272" value="&lt;h1&gt;Application States:&lt;/h1&gt;&lt;p&gt;&lt;b&gt;&lt;u&gt;&lt;span style=&quot;background-color: initial;&quot;&gt;Interaction States&lt;/span&gt;&lt;br&gt;&lt;/u&gt;&lt;/b&gt;&lt;/p&gt;&lt;ul&gt;&lt;li&gt;&lt;span style=&quot;background-color: initial;&quot;&gt;Idle (A)&lt;/span&gt;&lt;br&gt;&lt;/li&gt;&lt;li&gt;&lt;span style=&quot;background-color: initial;&quot;&gt;Viewing&amp;nbsp;&lt;/span&gt;(B)&lt;br&gt;&lt;/li&gt;&lt;/ul&gt;&lt;b&gt;&lt;u&gt;&lt;span style=&quot;background-color: initial;&quot;&gt;Processing States&lt;/span&gt;&lt;br&gt;&lt;/u&gt;&lt;/b&gt;&lt;ul&gt;&lt;li&gt;&lt;span style=&quot;background-color: initial;&quot;&gt;Inputting&amp;nbsp;&lt;/span&gt;(1)&lt;br&gt;&lt;/li&gt;&lt;li&gt;&lt;span style=&quot;background-color: initial;&quot;&gt;Modifying&amp;nbsp;&lt;/span&gt;(2)&lt;br&gt;&lt;/li&gt;&lt;li&gt;Exporting (3)&lt;/li&gt;&lt;/ul&gt;&lt;p&gt;&lt;/p&gt;&lt;p&gt;&lt;br&gt;&lt;/p&gt;" style="text;html=1;strokeColor=none;fillColor=none;spacing=5;spacingTop=-20;whiteSpace=wrap;overflow=hidden;rounded=0;" vertex="1" parent="1">
          <mxGeometry x="-1160" y="-1290" width="230" height="220" as="geometry" />
        </mxCell>
        <mxCell id="1PdTfg1dqlz-AFpm_Ou7-318" value="" style="group" vertex="1" connectable="0" parent="1">
          <mxGeometry x="-746" y="-1393" width="80" height="80" as="geometry" />
        </mxCell>
        <mxCell id="1PdTfg1dqlz-AFpm_Ou7-319" value="&lt;span style=&quot;color: rgba(0, 0, 0, 0); font-family: monospace; font-size: 0px; text-align: start; text-wrap: nowrap;&quot;&gt;%3CmxGraphModel%3E%3Croot%3E%3CmxCell%20id%3D%220%22%2F%3E%3CmxCell%20id%3D%221%22%20parent%3D%220%22%2F%3E%3CmxCell%20id%3D%222%22%20value%3D%22%26lt%3Bfont%20style%3D%26quot%3Bfont-size%3A%2024px%3B%26quot%3B%26gt%3B1%26lt%3B%2Ffont%26gt%3B%22%20style%3D%22text%3Bhtml%3D1%3BstrokeColor%3Dnone%3BfillColor%3Dnone%3Balign%3Dcenter%3BverticalAlign%3Dmiddle%3BwhiteSpace%3Dwrap%3Brounded%3D0%3B%22%20vertex%3D%221%22%20parent%3D%221%22%3E%3CmxGeometry%20x%3D%2230%22%20y%3D%22-1405%22%20width%3D%2260%22%20height%3D%2230%22%20as%3D%22geometry%22%2F%3E%3C%2FmxCell%3E%3C%2Froot%3E%3C%2FmxGraphModel%3E&lt;/span&gt;" style="ellipse;whiteSpace=wrap;html=1;aspect=fixed;" vertex="1" parent="1PdTfg1dqlz-AFpm_Ou7-318">
          <mxGeometry width="80" height="80" as="geometry" />
        </mxCell>
        <mxCell id="1PdTfg1dqlz-AFpm_Ou7-320" value="&lt;span style=&quot;font-size: 24px;&quot;&gt;B&lt;/span&gt;" style="text;html=1;strokeColor=none;fillColor=none;align=center;verticalAlign=middle;whiteSpace=wrap;rounded=0;" vertex="1" parent="1PdTfg1dqlz-AFpm_Ou7-318">
          <mxGeometry x="10" y="24" width="60" height="30" as="geometry" />
        </mxCell>
        <mxCell id="1PdTfg1dqlz-AFpm_Ou7-324" value="" style="group" vertex="1" connectable="0" parent="1">
          <mxGeometry x="-865" y="-1393" width="80" height="80" as="geometry" />
        </mxCell>
        <mxCell id="1PdTfg1dqlz-AFpm_Ou7-325" value="&lt;span style=&quot;color: rgba(0, 0, 0, 0); font-family: monospace; font-size: 0px; text-align: start; text-wrap: nowrap;&quot;&gt;%3CmxGraphModel%3E%3Croot%3E%3CmxCell%20id%3D%220%22%2F%3E%3CmxCell%20id%3D%221%22%20parent%3D%220%22%2F%3E%3CmxCell%20id%3D%222%22%20value%3D%22%26lt%3Bfont%20style%3D%26quot%3Bfont-size%3A%2024px%3B%26quot%3B%26gt%3B1%26lt%3B%2Ffont%26gt%3B%22%20style%3D%22text%3Bhtml%3D1%3BstrokeColor%3Dnone%3BfillColor%3Dnone%3Balign%3Dcenter%3BverticalAlign%3Dmiddle%3BwhiteSpace%3Dwrap%3Brounded%3D0%3B%22%20vertex%3D%221%22%20parent%3D%221%22%3E%3CmxGeometry%20x%3D%2230%22%20y%3D%22-1405%22%20width%3D%2260%22%20height%3D%2230%22%20as%3D%22geometry%22%2F%3E%3C%2FmxCell%3E%3C%2Froot%3E%3C%2FmxGraphModel%3E&lt;/span&gt;" style="ellipse;whiteSpace=wrap;html=1;aspect=fixed;" vertex="1" parent="1PdTfg1dqlz-AFpm_Ou7-324">
          <mxGeometry width="80" height="80" as="geometry" />
        </mxCell>
        <mxCell id="1PdTfg1dqlz-AFpm_Ou7-326" value="&lt;span style=&quot;font-size: 24px;&quot;&gt;A&lt;/span&gt;" style="text;html=1;strokeColor=none;fillColor=none;align=center;verticalAlign=middle;whiteSpace=wrap;rounded=0;" vertex="1" parent="1PdTfg1dqlz-AFpm_Ou7-324">
          <mxGeometry x="10" y="25" width="60" height="30" as="geometry" />
        </mxCell>
        <mxCell id="1PdTfg1dqlz-AFpm_Ou7-369" value="" style="group" vertex="1" connectable="0" parent="1">
          <mxGeometry x="-805" y="-1280" width="80" height="80" as="geometry" />
        </mxCell>
        <mxCell id="1PdTfg1dqlz-AFpm_Ou7-370" value="&lt;span style=&quot;color: rgba(0, 0, 0, 0); font-family: monospace; font-size: 0px; text-align: start; text-wrap: nowrap;&quot;&gt;%3CmxGraphModel%3E%3Croot%3E%3CmxCell%20id%3D%220%22%2F%3E%3CmxCell%20id%3D%221%22%20parent%3D%220%22%2F%3E%3CmxCell%20id%3D%222%22%20value%3D%22%26lt%3Bfont%20style%3D%26quot%3Bfont-size%3A%2024px%3B%26quot%3B%26gt%3B1%26lt%3B%2Ffont%26gt%3B%22%20style%3D%22text%3Bhtml%3D1%3BstrokeColor%3Dnone%3BfillColor%3Dnone%3Balign%3Dcenter%3BverticalAlign%3Dmiddle%3BwhiteSpace%3Dwrap%3Brounded%3D0%3B%22%20vertex%3D%221%22%20parent%3D%221%22%3E%3CmxGeometry%20x%3D%2230%22%20y%3D%22-1405%22%20width%3D%2260%22%20height%3D%2230%22%20as%3D%22geometry%22%2F%3E%3C%2FmxCell%3E%3C%2Froot%3E%3C%2FmxGraphModel%3E&lt;/span&gt;" style="ellipse;whiteSpace=wrap;html=1;aspect=fixed;" vertex="1" parent="1PdTfg1dqlz-AFpm_Ou7-369">
          <mxGeometry width="80" height="80" as="geometry" />
        </mxCell>
        <mxCell id="1PdTfg1dqlz-AFpm_Ou7-371" value="&lt;span style=&quot;font-size: 24px;&quot;&gt;1&lt;/span&gt;" style="text;html=1;strokeColor=none;fillColor=none;align=center;verticalAlign=middle;whiteSpace=wrap;rounded=0;" vertex="1" parent="1PdTfg1dqlz-AFpm_Ou7-369">
          <mxGeometry x="10" y="25" width="60" height="30" as="geometry" />
        </mxCell>
        <mxCell id="1PdTfg1dqlz-AFpm_Ou7-372" value="" style="group" vertex="1" connectable="0" parent="1">
          <mxGeometry x="-805" y="-1187" width="80" height="80" as="geometry" />
        </mxCell>
        <mxCell id="1PdTfg1dqlz-AFpm_Ou7-373" value="&lt;span style=&quot;color: rgba(0, 0, 0, 0); font-family: monospace; font-size: 0px; text-align: start; text-wrap: nowrap;&quot;&gt;%3CmxGraphModel%3E%3Croot%3E%3CmxCell%20id%3D%220%22%2F%3E%3CmxCell%20id%3D%221%22%20parent%3D%220%22%2F%3E%3CmxCell%20id%3D%222%22%20value%3D%22%26lt%3Bfont%20style%3D%26quot%3Bfont-size%3A%2024px%3B%26quot%3B%26gt%3B1%26lt%3B%2Ffont%26gt%3B%22%20style%3D%22text%3Bhtml%3D1%3BstrokeColor%3Dnone%3BfillColor%3Dnone%3Balign%3Dcenter%3BverticalAlign%3Dmiddle%3BwhiteSpace%3Dwrap%3Brounded%3D0%3B%22%20vertex%3D%221%22%20parent%3D%221%22%3E%3CmxGeometry%20x%3D%2230%22%20y%3D%22-1405%22%20width%3D%2260%22%20height%3D%2230%22%20as%3D%22geometry%22%2F%3E%3C%2FmxCell%3E%3C%2Froot%3E%3C%2FmxGraphModel%3E&lt;/span&gt;" style="ellipse;whiteSpace=wrap;html=1;aspect=fixed;" vertex="1" parent="1PdTfg1dqlz-AFpm_Ou7-372">
          <mxGeometry width="80" height="80" as="geometry" />
        </mxCell>
        <mxCell id="1PdTfg1dqlz-AFpm_Ou7-374" value="&lt;span style=&quot;font-size: 24px;&quot;&gt;2&lt;/span&gt;" style="text;html=1;strokeColor=none;fillColor=none;align=center;verticalAlign=middle;whiteSpace=wrap;rounded=0;" vertex="1" parent="1PdTfg1dqlz-AFpm_Ou7-372">
          <mxGeometry x="10" y="25" width="60" height="30" as="geometry" />
        </mxCell>
        <mxCell id="1PdTfg1dqlz-AFpm_Ou7-375" value="" style="group" vertex="1" connectable="0" parent="1">
          <mxGeometry x="-806" y="-1087" width="80" height="80" as="geometry" />
        </mxCell>
        <mxCell id="1PdTfg1dqlz-AFpm_Ou7-376" value="&lt;span style=&quot;color: rgba(0, 0, 0, 0); font-family: monospace; font-size: 0px; text-align: start; text-wrap: nowrap;&quot;&gt;%3CmxGraphModel%3E%3Croot%3E%3CmxCell%20id%3D%220%22%2F%3E%3CmxCell%20id%3D%221%22%20parent%3D%220%22%2F%3E%3CmxCell%20id%3D%222%22%20value%3D%22%26lt%3Bfont%20style%3D%26quot%3Bfont-size%3A%2024px%3B%26quot%3B%26gt%3B1%26lt%3B%2Ffont%26gt%3B%22%20style%3D%22text%3Bhtml%3D1%3BstrokeColor%3Dnone%3BfillColor%3Dnone%3Balign%3Dcenter%3BverticalAlign%3Dmiddle%3BwhiteSpace%3Dwrap%3Brounded%3D0%3B%22%20vertex%3D%221%22%20parent%3D%221%22%3E%3CmxGeometry%20x%3D%2230%22%20y%3D%22-1405%22%20width%3D%2260%22%20height%3D%2230%22%20as%3D%22geometry%22%2F%3E%3C%2FmxCell%3E%3C%2Froot%3E%3C%2FmxGraphModel%3E&lt;/span&gt;" style="ellipse;whiteSpace=wrap;html=1;aspect=fixed;" vertex="1" parent="1PdTfg1dqlz-AFpm_Ou7-375">
          <mxGeometry width="80" height="80" as="geometry" />
        </mxCell>
        <mxCell id="1PdTfg1dqlz-AFpm_Ou7-377" value="&lt;span style=&quot;font-size: 24px;&quot;&gt;3&lt;/span&gt;" style="text;html=1;strokeColor=none;fillColor=none;align=center;verticalAlign=middle;whiteSpace=wrap;rounded=0;" vertex="1" parent="1PdTfg1dqlz-AFpm_Ou7-375">
          <mxGeometry x="10" y="25" width="60" height="30" as="geometry" />
        </mxCell>
        <mxCell id="1PdTfg1dqlz-AFpm_Ou7-378" value="" style="endArrow=classic;startArrow=classic;html=1;rounded=0;entryX=0;entryY=0.5;entryDx=0;entryDy=0;exitX=1;exitY=0.5;exitDx=0;exitDy=0;" edge="1" parent="1" source="1PdTfg1dqlz-AFpm_Ou7-325" target="1PdTfg1dqlz-AFpm_Ou7-319">
          <mxGeometry width="50" height="50" relative="1" as="geometry">
            <mxPoint x="-790" y="-1353" as="sourcePoint" />
            <mxPoint x="-900" y="-1273" as="targetPoint" />
          </mxGeometry>
        </mxCell>
        <mxCell id="1PdTfg1dqlz-AFpm_Ou7-381" value="" style="endArrow=classic;html=1;rounded=0;strokeColor=#000000;fontSize=24;entryX=0.5;entryY=0;entryDx=0;entryDy=0;exitX=0.5;exitY=1;exitDx=0;exitDy=0;" edge="1" parent="1" source="1PdTfg1dqlz-AFpm_Ou7-380" target="1PdTfg1dqlz-AFpm_Ou7-370">
          <mxGeometry width="50" height="50" relative="1" as="geometry">
            <mxPoint x="-1191" y="-999" as="sourcePoint" />
            <mxPoint x="-1121" y="-999" as="targetPoint" />
          </mxGeometry>
        </mxCell>
        <mxCell id="1PdTfg1dqlz-AFpm_Ou7-386" value="" style="endArrow=classic;html=1;rounded=0;strokeColor=#000000;fontSize=24;entryX=0.5;entryY=0;entryDx=0;entryDy=0;exitX=0.5;exitY=1;exitDx=0;exitDy=0;" edge="1" parent="1" source="1PdTfg1dqlz-AFpm_Ou7-370" target="1PdTfg1dqlz-AFpm_Ou7-373">
          <mxGeometry width="50" height="50" relative="1" as="geometry">
            <mxPoint x="-755" y="-1290" as="sourcePoint" />
            <mxPoint x="-755" y="-1270" as="targetPoint" />
          </mxGeometry>
        </mxCell>
        <mxCell id="1PdTfg1dqlz-AFpm_Ou7-387" value="" style="endArrow=classic;html=1;rounded=0;strokeColor=#000000;fontSize=24;entryX=0.5;entryY=0;entryDx=0;entryDy=0;exitX=0.5;exitY=1;exitDx=0;exitDy=0;" edge="1" parent="1" source="1PdTfg1dqlz-AFpm_Ou7-373" target="1PdTfg1dqlz-AFpm_Ou7-376">
          <mxGeometry width="50" height="50" relative="1" as="geometry">
            <mxPoint x="-745" y="-1280" as="sourcePoint" />
            <mxPoint x="-745" y="-1260" as="targetPoint" />
          </mxGeometry>
        </mxCell>
        <mxCell id="1PdTfg1dqlz-AFpm_Ou7-388" value="" style="curved=1;endArrow=classic;html=1;rounded=0;entryX=1;entryY=1;entryDx=0;entryDy=0;" edge="1" parent="1" target="1PdTfg1dqlz-AFpm_Ou7-373">
          <mxGeometry width="50" height="50" relative="1" as="geometry">
            <mxPoint x="-726" y="-1045" as="sourcePoint" />
            <mxPoint x="-676" y="-1095" as="targetPoint" />
            <Array as="points">
              <mxPoint x="-676" y="-1045" />
              <mxPoint x="-726" y="-1095" />
            </Array>
          </mxGeometry>
        </mxCell>
        <mxCell id="1PdTfg1dqlz-AFpm_Ou7-389" value="" style="curved=1;endArrow=classic;html=1;rounded=0;entryX=1;entryY=1;entryDx=0;entryDy=0;exitX=0.983;exitY=0.648;exitDx=0;exitDy=0;exitPerimeter=0;" edge="1" parent="1" source="1PdTfg1dqlz-AFpm_Ou7-376" target="1PdTfg1dqlz-AFpm_Ou7-370">
          <mxGeometry width="50" height="50" relative="1" as="geometry">
            <mxPoint x="-725.5" y="-1033" as="sourcePoint" />
            <mxPoint x="-736.5" y="-1107" as="targetPoint" />
            <Array as="points">
              <mxPoint x="-675.5" y="-1033" />
              <mxPoint x="-680" y="-1080" />
              <mxPoint x="-700" y="-1150" />
            </Array>
          </mxGeometry>
        </mxCell>
        <mxCell id="1PdTfg1dqlz-AFpm_Ou7-390" value="" style="curved=1;endArrow=classic;html=1;rounded=0;entryX=0;entryY=1;entryDx=0;entryDy=0;exitX=0;exitY=0.5;exitDx=0;exitDy=0;" edge="1" parent="1" source="1PdTfg1dqlz-AFpm_Ou7-373" target="1PdTfg1dqlz-AFpm_Ou7-370">
          <mxGeometry width="50" height="50" relative="1" as="geometry">
            <mxPoint x="-889" y="-1135" as="sourcePoint" />
            <mxPoint x="-900" y="-1209" as="targetPoint" />
            <Array as="points">
              <mxPoint x="-839" y="-1135" />
              <mxPoint x="-830" y="-1190" />
            </Array>
          </mxGeometry>
        </mxCell>
        <mxCell id="1PdTfg1dqlz-AFpm_Ou7-396" value="&lt;font style=&quot;font-size: 48px;&quot;&gt;High Level State Diagram&lt;/font&gt;" style="text;html=1;align=center;verticalAlign=middle;whiteSpace=wrap;rounded=0;" vertex="1" parent="1">
          <mxGeometry x="-1180" y="-1500" width="570" height="30" as="geometry" />
        </mxCell>
      </root>
    </mxGraphModel>
  </diagram>
</mxfile>
